#!OML:ASF I:\golf\golf\golf 2\Subject 1\2002-09-07\Subject1.ASF
:FULLY-SPECIFIED
:DEGREES
229
root 0.935637 17.6907 -7.3222 23.4393 17.7437 0.488842
lowerback 10.5754 1.47207 -1.42111
upperback 7.95389 1.87247 5.23959
thorax 2.17794 0.775912 6.13069
lowerneck -17.624 -4.80588 -3.04563
upperneck 35.3027 -3.91695 -4.93455
head 15.2962 -2.62373 -2.21461
rclavicle 5.24792e-014 7.95139e-016
rhumerus -9.31962 10.3855 -76.522
rradius 36.6742
rwrist -13.6802
rhand -21.2693 11.3841
rfingers 7.12502
rthumb 5.11433 -18.5342
lclavicle 5.24792e-014 7.95139e-016
lhumerus -22.7712 -2.70497 85.7386
lradius 40.6049
lwrist 7.83571
lhand -8.78292 32.3551
lfingers 7.12502
lthumb 17.1554 61.6178
rfemur -51.5173 0.368543 15.5376
rtibia 27.5795
rfoot -0.326368 -3.43355
rtoes 1.07544
lfemur -24.0788 -4.05912 -16.0203
ltibia 26.9526
lfoot -23.3903 -10.8953
ltoes -1.97617
230
root 0.903189 17.6943 -7.25615 24.0011 18.2366 0.606775
lowerback 10.9594 1.50181 -1.22677
upperback 8.10091 1.9312 5.48985
thorax 2.11775 0.807229 6.27712
lowerneck -17.9728 -4.7232 -2.95471
upperneck 35.2061 -3.73043 -5.14531
head 15.3274 -2.5619 -2.29323
rclavicle 2.70347e-014 3.97569e-014
rhumerus -8.64375 10.6204 -76.0305
rradius 36.7827
rwrist -13.7964
rhand -21.1501 11.3035
rfingers 7.12502
rthumb 5.22943 -18.612
lclavicle 2.70347e-014 3.97569e-014
lhumerus -22.7026 -2.93726 86.1662
lradius 41.2479
lwrist 7.95476
lhand -8.9779 32.1733
lfingers 7.12502
lthumb 16.9677 61.4521
rfemur -52.1733 -0.0566769 15.7666
rtibia 27.9079
rfoot 0.378753 -3.43126
rtoes -3.28165
lfemur -24.3884 -4.44715 -15.6955
ltibia 26.6753
lfoot -23.1393 -11.0056
ltoes -2.29208
231
root 0.870729 17.695 -7.18577 24.5748 18.6338 0.672534
lowerback 11.3084 1.56593 -1.04717
upperback 8.25192 2.03464 5.72491
thorax 2.07599 0.86008 6.41229
lowerneck -17.9103 -4.98794 -3.1184
upperneck 34.7401 -4.06481 -5.17865
head 15.0893 -2.72557 -2.31297
rclavicle -3.49861e-014 -2.38542e-014
rhumerus -7.89275 11.131 -75.4399
rradius 36.8877
rwrist -14.2102
rhand -21.2528 11.1567
rfingers 7.12502
rthumb 5.1303 -18.7612
lclavicle -3.49861e-014 -2.38542e-014
lhumerus -22.7473 -3.23649 86.5148
lradius 42.0088
lwrist 8.02684
lhand -9.23725 31.7902
lfingers 7.12502
lthumb 16.7181 61.0903
rfemur -52.9381 -0.423841 16.0652
rtibia 28.266
rfoot 0.460785 -3.8069
rtoes -0.124972
lfemur -24.7417 -4.7252 -15.3753
ltibia 26.447
lfoot -23.0377 -11.084
ltoes -2.25779
232
root 0.838238 17.6895 -7.11733 25.1876 19.063 0.697666
lowerback 11.8341 1.66905 -0.518379
upperback 8.2561 2.22786 5.7337
thorax 1.78864 0.983306 6.08412
lowerneck -17.7714 -5.24087 -2.93847
upperneck 34.3586 -4.54939 -5.07867
head 14.8606 -2.88941 -2.36155
rclavicle -2.38542e-014 -6.36111e-015
rhumerus -7.34991 11.2486 -75.1791
rradius 36.9194
rwrist -14.5666
rhand -21.4257 11.1445
rfingers 7.12502
rthumb 4.9633 -18.7774
lclavicle -2.38542e-014 -6.36111e-015
lhumerus -23.0331 -4.0032 86.5681
lradius 42.9487
lwrist 8.10637
lhand -9.39366 31.6414
lfingers 7.12502
lthumb 16.5675 60.9542
rfemur -53.7055 -0.823337 16.471
rtibia 28.6923
rfoot 0.308531 -3.96942
rtoes 3.96703
lfemur -25.201 -4.89684 -15.0335
ltibia 26.2334
lfoot -23.0995 -10.9482
ltoes -3.39726
233
root 0.805387 17.6868 -7.04891 25.8815 19.4871 0.861297
lowerback 12.1964 1.86176 0.120902
upperback 8.32369 2.54498 5.55744
thorax 1.65999 1.1721 5.4858
lowerneck -17.7436 -5.53292 -2.47673
upperneck 34.0056 -5.20589 -4.89887
head 14.6571 -3.08042 -2.45855
rclavicle -4.92986e-014 -1.74931e-014
rhumerus -6.87745 10.5401 -75.1459
rradius 36.9909
rwrist -14.5096
rhand -21.5037 11.0918
rfingers 7.12502
rthumb 4.888 -18.8318
lclavicle -4.92986e-014 -1.74931e-014
lhumerus -23.059 -5.3494 86.5126
lradius 43.8202
lwrist 8.36909
lhand -9.43543 31.8955
lfingers 7.12502
lthumb 16.5273 61.2116
rfemur -54.4413 -1.1957 16.7055
rtibia 29.1956
rfoot 0.215953 -3.77899
rtoes 4.52732
lfemur -25.7412 -5.1295 -14.7999
ltibia 26.0491
lfoot -22.9593 -10.9524
ltoes -3.75783
234
root 0.772405 17.682 -6.97916 26.5922 19.819 1.09895
lowerback 12.6796 1.8406 0.288477
upperback 8.41651 2.54787 5.68344
thorax 1.5011 1.17865 5.51341
lowerneck -17.9519 -5.58956 -2.63473
upperneck 33.7111 -5.2404 -4.8739
head 14.5774 -3.1127 -2.42215
rclavicle -3.65764e-014 -2.06736e-014
rhumerus -6.02048 10.9951 -74.7246
rradius 37.0218
rwrist -14.6907
rhand -21.4265 10.9152
rfingers 7.12502
rthumb 4.96255 -19.0067
lclavicle -3.65764e-014 -2.06736e-014
lhumerus -23.2146 -5.60745 86.7702
lradius 44.7106
lwrist 8.60059
lhand -9.5631 32.14
lfingers 7.12502
lthumb 16.4043 61.4663
rfemur -55.1847 -1.53424 16.8574
rtibia 29.7351
rfoot 0.142239 -3.52943
rtoes 5.83145
lfemur -26.2142 -5.43244 -14.6396
ltibia 25.89
lfoot -22.8506 -10.8245
ltoes -3.62603
235
root 0.736585 17.6701 -6.90952 27.1785 20.1201 1.24009
lowerback 13.2159 1.90187 0.469103
upperback 8.57419 2.66171 5.83482
thorax 1.37296 1.23939 5.54781
lowerneck -18.1016 -5.76076 -2.76429
upperneck 33.2862 -5.50003 -4.72868
head 14.4236 -3.22053 -2.37182
rclavicle -2.70347e-014 -7.95139e-015
rhumerus -5.03301 11.336 -74.1766
rradius 36.9367
rwrist -15.0121
rhand -21.2297 10.8984
rfingers 7.12502
rthumb 5.1526 -19.0189
lclavicle -2.70347e-014 -7.95139e-015
lhumerus -23.2772 -6.03518 87.0478
lradius 45.5781
lwrist 8.74051
lhand -9.69332 31.9611
lfingers 7.12502
lthumb 16.279 61.2978
rfemur -55.8482 -1.77381 17.0939
rtibia 30.2628
rfoot 0.126208 -3.2379
rtoes 6.69106
lfemur -26.4822 -5.62961 -14.3962
ltibia 25.6844
lfoot -22.8669 -10.5422
ltoes -3.94003
236
root 0.699771 17.6637 -6.84031 27.7127 20.463 1.38224
lowerback 13.7818 1.42483 -0.024185
upperback 8.8907 2.01225 6.67435
thorax 1.43893 0.873117 6.8195
lowerneck -18.4163 -5.46267 -4.49801
upperneck 32.7263 -4.45818 -4.76487
head 14.3449 -3.00295 -1.90856
rclavicle 1.43125e-014 1.59028e-015
rhumerus -3.07421 14.2594 -72.6094
rradius 36.8299
rwrist -15.7148
rhand -21.0037 10.9232
rfingers 7.12502
rthumb 5.37074 -18.9887
lclavicle 1.43125e-014 1.59028e-015
lhumerus -23.389 -3.70293 87.98
lradius 46.3849
lwrist 8.40515
lhand -9.72867 31.4818
lfingers 7.12502
lthumb 16.2449 60.8212
rfemur -56.4246 -1.85907 17.1928
rtibia 30.7477
rfoot 0.0566031 -3.24715
rtoes 7.37217
lfemur -26.7427 -5.88112 -14.1219
ltibia 25.4522
lfoot -22.5473 -10.5824
ltoes -2.99077
237
root 0.661509 17.6676 -6.77247 28.318 20.8662 1.58519
lowerback 14.3241 1.68921 0.233631
upperback 8.931 2.40632 6.68856
thorax 1.15449 1.08453 6.62155
lowerneck -18.2092 -5.74533 -3.85276
upperneck 32.3417 -5.05084 -4.93508
head 14.0834 -3.19429 -2.15966
rclavicle 3.02153e-014 5.725e-014
rhumerus -2.46264 13.5599 -72.2389
rradius 36.6395
rwrist -15.6676
rhand -20.684 11.0218
rfingers 7.12502
rthumb 5.67945 -18.8821
lclavicle 3.02153e-014 5.725e-014
lhumerus -23.5343 -5.09757 88.1772
lradius 47.2362
lwrist 8.61505
lhand -9.87244 31.4341
lfingers 7.12502
lthumb 16.1065 60.7848
rfemur -57.018 -1.87769 17.129
rtibia 31.1754
rfoot -0.0255407 -3.62174
rtoes 10.2187
lfemur -27.1678 -6.12078 -13.8938
ltibia 25.2544
lfoot -22.2402 -10.6853
ltoes -2.99351
238
root 0.619 17.6718 -6.70862 29.0242 21.4112 1.77857
lowerback 14.8081 1.83462 0.515801
upperback 9.00741 2.64971 6.80814
thorax 0.95886 1.21683 6.54423
lowerneck -18.2522 -5.96598 -3.41637
upperneck 31.9824 -5.46204 -5.11444
head 13.8996 -3.33976 -2.35695
rclavicle 2.22639e-014 6.36111e-015
rhumerus -1.62166 13.3043 -71.7282
rradius 36.4525
rwrist -15.4466
rhand -20.623 10.9274
rfingers 7.12502
rthumb 5.73832 -18.9749
lclavicle 2.22639e-014 6.36111e-015
lhumerus -23.6489 -6.23466 88.4273
lradius 48.2169
lwrist 8.82976
lhand -10.0729 31.5935
lfingers 7.12502
lthumb 15.9134 60.9597
rfemur -57.6672 -2.04647 17.2125
rtibia 31.4956
rfoot -0.00766597 -3.94565
rtoes 12.3638
lfemur -27.8064 -6.14294 -13.6366
ltibia 25.1792
lfoot -22.0474 -11.0084
ltoes -3.74657
239
root 0.574563 17.6758 -6.64703 29.872 22.0644 2.05414
lowerback 15.4501 1.80361 0.959424
upperback 8.97291 2.69765 6.85283
thorax 0.594647 1.26146 6.31324
lowerneck -18.4062 -6.13604 -3.19482
upperneck 31.6566 -5.77579 -5.13562
head 13.7725 -3.45078 -2.445
rclavicle -2.8625e-014 5.40694e-014
rhumerus -0.839422 13.4741 -71.3687
rradius 36.3503
rwrist -14.937
rhand -21.0714 10.751
rfingers 7.12502
rthumb 5.3054 -19.1626
lclavicle -2.8625e-014 5.40694e-014
lhumerus -23.8809 -7.11319 88.5058
lradius 49.2783
lwrist 9.01824
lhand -10.0901 31.5696
lfingers 7.12502
lthumb 15.8969 60.9371
rfemur -58.377 -2.34717 17.3151
rtibia 31.7406
rfoot 0.0341774 -4.20124
rtoes 12.6339
lfemur -28.6736 -6.01558 -13.4424
ltibia 25.2815
lfoot -21.6333 -11.8232
ltoes -2.58483
